<?xml version="1.0" encoding="UTF-8"?>
<svg width="128" height="128" viewBox="0 0 128 128" xmlns="http://www.w3.org/2000/svg">
  <!-- Background -->
  <rect width="128" height="128" fill="#84cc16" rx="19.2"/>
  
  <!-- Pipette icon - scaled and centered -->
  <g transform="translate(64, 64) scale(4.266666666666667) translate(-12, -12)">
    <path 
      d="m12 9-8.414 8.414A2 2 0 0 0 3 18.828v1.344a2 2 0 0 1-.586 1.414A2 2 0 0 1 3.828 21h1.344a2 2 0 0 0 1.414-.586L15 12" 
      fill="none" 
      stroke="#000000" 
      stroke-width="2" 
      stroke-linecap="round" 
      stroke-linejoin="round"/>
    <path 
      d="m18 9 .4.4a1 1 0 1 1-3 3l-3.8-3.8a1 1 0 1 1 3-3l.4.4 3.4-3.4a1 1 0 1 1 3 3z" 
      fill="none" 
      stroke="#000000" 
      stroke-width="2" 
      stroke-linecap="round" 
      stroke-linejoin="round"/>
    <path 
      d="m2 22 .414-.414" 
      fill="none" 
      stroke="#000000" 
      stroke-width="2" 
      stroke-linecap="round" 
      stroke-linejoin="round"/>
  </g>
</svg>